<svg width="334" height="177" viewBox="0 0 334 177" fill="none" xmlns="http://www.w3.org/2000/svg">
<rect width="334" height="177" fill="#1E1E1E"/>
<g clip-path="url(#clip0_0_1)">
<rect width="1440" height="1185" transform="translate(-859 -267)" fill="white"/>
<g clip-path="url(#clip1_0_1)">
<rect x="-612" width="946" height="177" rx="8" fill="#F5F5F5"/>
<g filter="url(#filter0_d_0_1)">
<g clip-path="url(#clip2_0_1)">
<rect width="239" height="155.452" rx="14.84" transform="matrix(0.83205 -0.5547 0.830139 0.557556 10 102.247)" fill="white"/>
<g filter="url(#filter1_b_0_1)">
<rect width="211.371" height="137.482" transform="matrix(0.83205 -0.5547 0.830139 0.557556 10 102.247)" fill="white"/>
</g>
<path d="M172.013 100.699L164.283 95.508L189.185 78.907L185.32 76.3114L168.26 87.6845C166.059 89.1521 163.135 90.0344 160.032 90.1675L159.642 90.1842C157.62 90.2709 155.599 89.9954 153.788 89.3859C152.693 89.0174 151.694 88.5333 150.828 87.9522L149.576 87.1113C148.711 86.5302 147.991 85.8597 147.445 85.1256C146.541 83.9113 146.136 82.5582 146.274 81.2057L146.3 80.9444C146.51 78.8685 147.84 76.9154 150.041 75.4477L171.528 61.1234L178.705 65.9439L153.804 82.5448L157.668 85.1405L175.403 73.317C177.173 72.1371 179.507 71.4102 181.997 71.2631C183.465 71.1763 184.945 71.2937 186.344 71.6082L187.443 71.8554C189.686 72.3597 191.723 73.2064 193.394 74.3283L193.546 74.4307C194.325 74.9535 195.004 75.5382 195.571 76.1717L195.958 76.6054C197.297 78.1041 197.825 79.8649 197.454 81.5919C197.103 83.2189 195.974 84.7252 194.234 85.8848L172.013 100.699Z" fill="#FD3503"/>
<path fill-rule="evenodd" clip-rule="evenodd" d="M195.571 76.1717C195.004 75.5382 194.325 74.9535 193.546 74.4307L193.394 74.3283C191.723 73.2064 189.686 72.3597 187.443 71.8554L186.344 71.6082C184.945 71.2937 183.465 71.1763 181.997 71.2631C179.507 71.4102 177.173 72.1371 175.403 73.317L157.668 85.1405L153.804 82.5448L178.705 65.9439L171.528 61.1234L150.041 75.4477C147.84 76.9154 146.51 78.8685 146.3 80.9444L146.274 81.2057C146.136 82.5582 146.541 83.9113 147.445 85.1256C147.991 85.8597 148.711 86.5302 149.576 87.1113L150.828 87.9522C151.694 88.5333 152.693 89.0174 153.788 89.3859C155.599 89.9954 157.62 90.2709 159.642 90.1842L160.032 90.1675C163.135 90.0344 166.059 89.1521 168.26 87.6845L185.32 76.3114L189.185 78.907L164.283 95.508L172.013 100.699L194.234 85.8848C195.974 84.7252 197.103 83.2189 197.454 81.5919C197.825 79.8649 197.297 78.1041 195.958 76.6054L195.571 76.1717ZM172.015 99.2199L193.13 85.1431C194.63 84.1432 195.604 82.8443 195.906 81.4413C196.227 79.9521 195.771 78.4337 194.617 77.1413L194.229 76.7076C193.729 76.1476 193.128 75.6307 192.439 75.1685L192.287 75.0661C190.788 74.0593 188.96 73.2996 186.947 72.847L185.847 72.5997C184.654 72.3313 183.39 72.231 182.136 72.3051C180.011 72.4308 178.019 73.0513 176.508 74.0586L157.666 86.6199L151.593 82.541L176.494 65.9401L171.525 62.6028L151.145 76.1894C149.212 77.4783 148.045 79.1936 147.86 81.0167L147.833 81.2779C147.715 82.445 148.064 83.6125 148.844 84.6601C149.315 85.2935 149.936 85.8721 150.683 86.3735L151.935 87.2144C152.682 87.7158 153.544 88.1335 154.489 88.4514C156.051 88.9773 157.795 89.215 159.539 89.1402L159.93 89.1235C162.655 89.0066 165.223 88.2317 167.156 86.9428L185.323 74.8319L191.396 78.9108L166.494 95.5118L172.015 99.2199Z" fill="#FD3503"/>
<path d="M155.703 111.778L147.938 116.954L125.717 102.03L114.625 109.425L107.038 104.329L136.432 84.7325L144.02 89.8286L133.482 96.8538L155.703 111.778Z" fill="#FD3503"/>
<path fill-rule="evenodd" clip-rule="evenodd" d="M131.271 96.85L141.809 89.8248L136.43 86.212L109.249 104.333L114.628 107.946L125.72 100.551L147.941 115.475L153.492 111.774L131.271 96.85ZM155.703 111.778L147.938 116.954L125.717 102.03L114.625 109.425L107.038 104.329L136.432 84.7325L144.02 89.8286L133.482 96.8538L155.703 111.778Z" fill="#FD3503"/>
<path d="M214.648 42.1634L190.495 58.265L205.12 68.088L224.218 55.3564L220.843 53.0896L211.294 59.4554L203.419 54.1661L218.023 44.4302L228.353 51.3682C229.335 52.0279 230.152 52.7887 230.774 53.6215L230.968 53.8811C231.705 54.8678 232.103 55.9519 232.134 57.0541C232.159 57.9289 231.952 58.7994 231.522 59.6254L231.4 59.86C230.747 61.1163 229.676 62.2567 228.269 63.1953L217.003 70.7059C214.438 72.416 210.959 73.3712 207.335 73.3604C205.872 73.356 204.415 73.1931 203.028 72.8797C201.082 72.44 199.303 71.7119 197.832 70.7518L196.072 69.6032L192.079 66.996L186.321 63.0086C185.363 62.3455 184.54 61.6012 183.871 60.795L183.205 59.9922C182.455 59.0872 182.03 58.0779 181.964 57.0444L181.955 56.9033C181.904 56.1099 182.091 55.3179 182.504 54.574C182.951 53.7699 183.653 53.0401 184.561 52.4348L207.335 37.2519L214.648 42.1634Z" fill="#FD3503"/>
<path fill-rule="evenodd" clip-rule="evenodd" d="M188.284 58.2612L212.437 42.1596L207.333 38.7313L185.665 53.1764C184.916 53.6754 184.338 54.277 183.97 54.9398C183.629 55.5531 183.475 56.206 183.517 56.8601L183.526 57.0012C183.581 57.8722 183.94 58.7229 184.572 59.4856L185.238 60.2884C185.84 61.0146 186.582 61.6849 187.444 62.2823L193.186 66.2585L198.923 70.0035C200.225 70.8536 201.802 71.4989 203.527 71.8886C204.755 72.1662 206.045 72.3104 207.34 72.3143L207.335 73.3604C205.872 73.356 204.415 73.1931 203.028 72.8797C201.082 72.44 199.303 71.7119 197.832 70.7518L192.079 66.996L186.321 63.0086C185.363 62.3455 184.54 61.6012 183.871 60.795L183.205 59.9922C182.455 59.0872 182.03 58.0779 181.964 57.0444L181.955 56.9033C181.904 56.1099 182.091 55.3179 182.504 54.574C182.951 53.7699 183.653 53.0401 184.561 52.4348L207.335 37.2519L214.648 42.1634L190.495 58.265L205.12 68.088L224.218 55.3564L220.843 53.0896L211.294 59.4554L203.419 54.1661L218.023 44.4302L228.353 51.3682C229.335 52.0279 230.152 52.7887 230.774 53.6215L229.376 54.088C228.829 53.3554 228.11 52.6863 227.246 52.106L218.02 45.9096L205.63 54.1699L211.297 57.9759L220.845 51.6102L226.429 55.3602L205.118 69.5674L188.284 58.2612ZM231.4 59.86C230.747 61.1163 229.676 62.2567 228.269 63.1953L217.003 70.7059C214.438 72.416 210.959 73.3712 207.335 73.3604L207.34 72.3143C210.548 72.3238 213.628 71.4782 215.899 69.9642L227.164 62.4537C228.405 61.6267 229.348 60.622 229.924 59.515L230.046 59.2804C230.415 58.5711 230.592 57.8235 230.571 57.0723C230.545 56.1258 230.202 55.1949 229.57 54.3476L229.376 54.088L230.774 53.6215L230.968 53.8811C231.705 54.8678 232.103 55.9519 232.134 57.0541C232.159 57.9289 231.952 58.7994 231.522 59.6254L231.4 59.86Z" fill="#FD3503"/>
<g clip-path="url(#clip3_0_1)">
<path d="M245.891 42.4651C245.52 42.5818 245.107 42.5656 244.803 42.4225C244.621 42.344 244.551 42.2529 244.398 41.8019C243.825 40.1104 242.576 38.6008 240.777 37.4272C239.081 36.2537 236.925 35.4412 234.478 35.0525C234.089 34.974 233.725 34.8946 233.362 34.7906C233.183 34.6181 233.106 34.4008 233.187 34.1853C233.343 33.8976 233.729 33.6782 234.157 33.6082C234.546 33.6254 234.908 33.66 235.28 33.7351C237.163 34.0625 238.915 34.601 240.468 35.3294C241.656 35.9272 242.732 36.6233 243.665 37.3985C244.806 38.4348 245.654 39.6053 246.175 40.8784C246.493 41.6495 246.568 42.0138 246.321 42.1787L245.891 42.4651ZM241.785 43.5053C241.322 43.691 240.755 43.6237 240.5 43.3481C240.432 43.3019 240.318 42.9554 240.179 42.618C239.644 41.2311 238.507 40.0232 236.894 39.1402C235.753 38.4957 234.387 38.0397 232.896 37.7967C231.763 37.5845 231.623 37.5247 231.554 37.1561C231.559 36.7763 231.994 36.4325 232.586 36.3601C233.663 36.4562 234.7 36.6559 235.673 36.9438C238.681 37.8491 240.921 39.5276 241.942 41.6421C242.48 42.735 242.446 43.2261 241.756 43.4861L241.785 43.5053ZM237.576 44.5986C237.415 44.6451 237.244 44.6679 237.076 44.6653C236.909 44.6628 236.748 44.635 236.608 44.5839C236.493 44.5069 236.344 44.4067 236.178 43.9031C235.892 43.0727 235.286 42.3305 234.415 41.7455C233.544 41.1605 232.437 40.7519 231.197 40.5578C230.051 40.3542 229.902 40.254 229.971 39.8391C229.969 39.6718 230.088 39.5079 230.306 39.3932C230.722 39.1154 231.135 39.0787 232.135 39.2799C233.584 39.5126 234.875 39.9964 235.889 40.6861C236.953 41.3663 237.7 42.251 238.046 43.2413C238.297 43.8803 238.264 44.0938 237.965 44.3628C237.852 44.453 237.711 44.5321 237.542 44.5755L237.576 44.5986ZM233.614 45.6046C233.307 45.6861 232.983 45.6949 232.698 45.6164C232.432 45.5249 232.325 45.3659 232.218 44.9457C232.153 44.4666 231.827 44.0388 231.313 43.7367C230.87 43.3787 230.239 43.1548 229.518 43.0977C229.265 43.0725 229.018 43.0346 228.778 42.9841C228.345 42.7891 228.274 42.3756 228.655 42.0299C228.949 41.757 229.328 41.6808 230.09 41.7567C231.171 41.8649 232.142 42.1879 232.883 42.6858C233.625 43.1836 234.104 43.8347 234.261 44.5586C234.371 45.0766 234.126 45.417 233.62 45.6003L233.614 45.6046Z" fill="white"/>
</g>
</g>
</g>
</g>
</g>
<defs>
<filter id="filter0_d_0_1" x="0" y="-34.326" width="347.907" height="239.247" filterUnits="userSpaceOnUse" color-interpolation-filters="sRGB">
<feFlood flood-opacity="0" result="BackgroundImageFix"/>
<feColorMatrix in="SourceAlpha" type="matrix" values="0 0 0 0 0 0 0 0 0 0 0 0 0 0 0 0 0 0 127 0" result="hardAlpha"/>
<feOffset dy="6"/>
<feGaussianBlur stdDeviation="5"/>
<feComposite in2="hardAlpha" operator="out"/>
<feColorMatrix type="matrix" values="0 0 0 0 0 0 0 0 0 0 0 0 0 0 0 0 0 0 0.25 0"/>
<feBlend mode="normal" in2="BackgroundImageFix" result="effect1_dropShadow_0_1"/>
<feBlend mode="normal" in="SourceGraphic" in2="effect1_dropShadow_0_1" result="shape"/>
</filter>
<filter id="filter1_b_0_1" x="-74.7904" y="-99.7904" width="459.581" height="363.482" filterUnits="userSpaceOnUse" color-interpolation-filters="sRGB">
<feFlood flood-opacity="0" result="BackgroundImageFix"/>
<feGaussianBlur in="BackgroundImageFix" stdDeviation="42.3952"/>
<feComposite in2="SourceAlpha" operator="in" result="effect1_backgroundBlur_0_1"/>
<feBlend mode="normal" in="SourceGraphic" in2="effect1_backgroundBlur_0_1" result="shape"/>
</filter>
<clipPath id="clip0_0_1">
<rect width="1440" height="1185" fill="white" transform="translate(-859 -267)"/>
</clipPath>
<clipPath id="clip1_0_1">
<rect x="-612" width="946" height="177" rx="8" fill="white"/>
</clipPath>
<clipPath id="clip2_0_1">
<rect width="239" height="155.452" rx="14.84" transform="matrix(0.83205 -0.5547 0.830139 0.557556 10 102.247)" fill="white"/>
</clipPath>
<clipPath id="clip3_0_1">
<rect width="18.775" height="18.7751" fill="white" transform="matrix(0.83205 -0.5547 0.830139 0.557556 207.857 46.2823)"/>
</clipPath>
</defs>
</svg>
