<svg width="152" height="49" viewBox="0 0 152 49" fill="none" xmlns="http://www.w3.org/2000/svg">
<mask id="path-1-inside-1_38_74" fill="white">
<path fill-rule="evenodd" clip-rule="evenodd" d="M117.782 48.0604H121.166L123.197 43.322H128.612L130.643 48.0604H134.028L128.365 32.3316C128.094 31.5777 127.492 30.9898 126.732 30.7365C126.195 30.5575 125.614 30.5575 125.078 30.7365C124.318 30.9898 123.716 31.5777 123.444 32.3316L117.782 48.0604ZM124.739 39.2606H127.071C127.163 39.2606 127.228 39.1701 127.199 39.0824L126.033 35.5845C125.992 35.461 125.817 35.461 125.776 35.5845L124.61 39.0824C124.581 39.1701 124.646 39.2606 124.739 39.2606Z"/>
</mask>
<path fill-rule="evenodd" clip-rule="evenodd" d="M117.782 48.0604H121.166L123.197 43.322H128.612L130.643 48.0604H134.028L128.365 32.3316C128.094 31.5777 127.492 30.9898 126.732 30.7365C126.195 30.5575 125.614 30.5575 125.078 30.7365C124.318 30.9898 123.716 31.5777 123.444 32.3316L117.782 48.0604ZM124.739 39.2606H127.071C127.163 39.2606 127.228 39.1701 127.199 39.0824L126.033 35.5845C125.992 35.461 125.817 35.461 125.776 35.5845L124.61 39.0824C124.581 39.1701 124.646 39.2606 124.739 39.2606Z" fill="white"/>
<path d="M121.166 48.0604V48.3311H121.345L121.415 48.167L121.166 48.0604ZM117.782 48.0604L117.527 47.9687L117.397 48.3311H117.782V48.0604ZM123.197 43.322V43.0513H123.018L122.948 43.2154L123.197 43.322ZM128.612 43.322L128.861 43.2154L128.791 43.0513H128.612V43.322ZM130.643 48.0604L130.394 48.167L130.464 48.3311H130.643V48.0604ZM134.028 48.0604V48.3311H134.413L134.282 47.9687L134.028 48.0604ZM128.365 32.3316L128.62 32.2399V32.2399L128.365 32.3316ZM126.732 30.7365L126.817 30.4796V30.4796L126.732 30.7365ZM123.444 32.3316L123.189 32.2399V32.2399L123.444 32.3316ZM127.199 39.0824L126.942 39.168L126.942 39.168L127.199 39.0824ZM126.033 35.5845L125.776 35.6701L125.776 35.6701L126.033 35.5845ZM125.776 35.5845L126.033 35.6701V35.6701L125.776 35.5845ZM124.61 39.0824L124.867 39.168V39.168L124.61 39.0824ZM121.166 47.7896H117.782V48.3311H121.166V47.7896ZM122.948 43.2154L120.917 47.9537L121.415 48.167L123.446 43.4287L122.948 43.2154ZM128.612 43.0513H123.197V43.5928H128.612V43.0513ZM130.892 47.9537L128.861 43.2154L128.363 43.4287L130.394 48.167L130.892 47.9537ZM134.028 47.7896H130.643V48.3311H134.028V47.7896ZM128.11 32.4233L133.773 48.1521L134.282 47.9687L128.62 32.2399L128.11 32.4233ZM126.646 30.9933C127.327 31.2205 127.867 31.7475 128.11 32.4233L128.62 32.2399C128.32 31.4079 127.656 30.7592 126.817 30.4796L126.646 30.9933ZM125.163 30.9933C125.645 30.8329 126.165 30.8329 126.646 30.9933L126.817 30.4796C126.225 30.2821 125.584 30.2821 124.992 30.4796L125.163 30.9933ZM123.699 32.4233C123.942 31.7475 124.482 31.2205 125.163 30.9933L124.992 30.4796C124.153 30.7592 123.489 31.4079 123.189 32.2399L123.699 32.4233ZM118.037 48.1521L123.699 32.4233L123.189 32.2399L117.527 47.9687L118.037 48.1521ZM127.071 38.9898H124.739V39.5314H127.071V38.9898ZM126.942 39.168C126.913 39.0804 126.978 38.9898 127.071 38.9898V39.5314C127.348 39.5314 127.544 39.2598 127.456 38.9968L126.942 39.168ZM125.776 35.6701L126.942 39.168L127.456 38.9968L126.29 35.4988L125.776 35.6701ZM126.033 35.6701C125.992 35.7935 125.817 35.7935 125.776 35.6701L126.29 35.4988C126.167 35.1286 125.643 35.1286 125.519 35.4988L126.033 35.6701ZM124.867 39.168L126.033 35.6701L125.519 35.4988L124.353 38.9968L124.867 39.168ZM124.739 38.9898C124.831 38.9898 124.896 39.0804 124.867 39.168L124.353 38.9968C124.266 39.2598 124.461 39.5314 124.739 39.5314V38.9898Z" fill="white" mask="url(#path-1-inside-1_38_74)"/>
<path d="M128.36 12.3795L129.289 10.8305L129.472 10.4649C129.491 10.4271 129.51 10.3893 129.529 10.3514C130.742 7.92586 131.997 5.41662 131.997 2.70763C131.997 1.08305 131.32 0 131.32 0C131.32 0 134.574 2.7301 136.058 5.41525C136.718 6.60967 137.266 7.54938 137.683 8.79979C137.994 9.73451 138.078 11.8491 138.089 12.8612C138.125 16.2469 137.412 18.9534 136.735 20.9841C136.058 23.0148 132.403 31.8146 132.403 37.2299L129.966 31.8146L128.216 28.3139L128.214 28.3108L127.842 27.5656C127.453 26.7891 127.121 25.986 126.846 25.1624L126.582 24.3686L126.547 24.2644C126.121 22.9884 125.905 21.6522 125.905 20.3072C125.905 19.1303 126.071 17.9602 126.397 16.8312C126.444 16.6699 126.494 16.5095 126.547 16.35L126.582 16.2458L126.712 15.8538C127.075 14.7646 127.556 13.7183 128.147 12.7338L128.36 12.3795Z" fill="url(#paint0_linear_38_74)"/>
<path d="M128.36 12.3795L129.289 10.8305L129.472 10.4649C129.491 10.4271 129.51 10.3893 129.529 10.3514C130.742 7.92586 131.997 5.41662 131.997 2.70763C131.997 1.85553 131.811 1.15241 131.633 0.676409C131.531 0.437938 131.425 0.210766 131.32 0C131.32 0 131.473 0.244876 131.633 0.676409C132.191 1.96971 132.674 3.5953 132.674 4.73835C132.674 6.09216 133.351 10.1536 130.643 14.8919C128.493 18.6552 127.935 20.3072 128.612 23.6917C129.143 26.3468 131.139 33.8453 132.403 37.2299L129.966 31.8146L128.216 28.3139L128.214 28.3107L127.842 27.5656C127.453 26.7891 127.121 25.986 126.846 25.1624L126.582 24.3686L126.547 24.2644C126.121 22.9884 125.905 21.6522 125.905 20.3072C125.905 18.9622 126.121 17.626 126.547 16.35L126.582 16.2458C127.031 14.896 127.628 13.5995 128.36 12.3795Z" fill="url(#paint1_linear_38_74)"/>
<path d="M150.95 43.322V48.0604H139.233C138.487 48.0604 137.758 47.8395 137.137 47.4257C136.438 46.9596 135.914 46.2737 135.648 45.4766L135.599 45.3279C135.455 44.896 135.381 44.4437 135.381 43.9885V42.5708C135.381 42.1717 135.446 41.7752 135.572 41.3966C135.883 40.4623 136.553 39.6901 137.434 39.2497L138.766 38.5837L148.243 35.1991H135.381V31.1377H148.038C149.011 31.1377 149.921 31.6244 150.461 32.4347C150.78 32.9131 150.95 33.4753 150.95 34.0503V35.876V36.6496C150.95 37.4545 150.63 38.2265 150.061 38.7957C149.755 39.1021 149.387 39.3393 148.981 39.4914L138.766 43.322H150.95Z" fill="white" stroke="white" stroke-width="0.270763"/>
<path d="M68.4743 48.0604H41.9682V39.9375H71.7521H72.429V39.2606V34.5222V33.8453H71.7521H50.8838C48.3548 33.8453 45.9119 32.9274 44.0086 31.2621L43.7536 31.0389C42.5237 29.9628 41.6029 28.5782 41.0861 27.0278C40.7737 26.0904 40.6144 25.1089 40.6144 24.1208V22.5857C40.6144 21.5976 40.7737 20.6161 41.0861 19.6787C41.6029 18.1283 42.5237 16.7437 43.7536 15.6676L44.0086 15.4444C45.9119 13.7791 48.3548 12.8612 50.8838 12.8612H76.4905V20.3072H46.7066H46.0297V20.9841V25.7224V26.3993H46.7066H68.4013C70.4081 26.3993 72.3513 27.1029 73.893 28.3876C74.8021 29.1452 75.5447 30.0828 76.0739 31.1413L76.523 32.0394C77.3919 33.7773 77.8443 35.6935 77.8443 37.6365V37.8234C77.8443 38.7226 77.734 39.6183 77.5159 40.4906L77.3574 41.1246C76.8474 43.1648 75.6506 44.9673 73.9682 46.229C72.3833 47.4178 70.4555 48.0604 68.4743 48.0604Z" fill="white" stroke="white" stroke-width="1.35381"/>
<path d="M22.3379 20.9841V48.0603H14.215V20.9841V20.3072H13.5381H0.676907V12.1843H35.1992V20.3072H23.0148H22.3379V20.9841Z" fill="white" stroke="white" stroke-width="1.35381"/>
<path d="M89.0523 12.8612H116.428V20.4732H87.5602H86.8833V21.1501V39.0818V39.7587H87.5602H110.921H111.598V39.0818V34.9437V34.2668H110.921H99.9175V25.9651H116.428V37.9535C116.428 39.0851 116.246 40.2094 115.889 41.2834L115.83 41.4619C115.374 42.8372 114.615 44.0932 113.611 45.1382C112.968 45.8077 112.212 46.3579 111.376 46.7633L111.12 46.8878C109.53 47.6594 107.786 48.0604 106.019 48.0604H92.4619C89.504 48.0604 86.6678 46.8825 84.5802 44.787C83.7374 43.941 83.0345 42.9613 82.5019 41.8921C81.7543 40.3912 81.3516 38.737 81.3277 37.0611L81.2289 30.1163L81.3386 22.9568C81.356 21.8236 81.5219 20.6976 81.8322 19.6075L82.219 18.2486C82.5161 17.2049 83.0523 16.2449 83.7851 15.4447L83.9301 15.2864C84.6495 14.5008 85.5189 13.867 86.4869 13.4223C87.2916 13.0526 88.1667 12.8612 89.0523 12.8612Z" fill="white" stroke="white" stroke-width="1.35381"/>
<defs>
<linearGradient id="paint0_linear_38_74" x1="137.412" y1="14.8919" x2="127.258" y2="25.7225" gradientUnits="userSpaceOnUse">
<stop offset="0.198016" stop-color="#6EC5E2"/>
<stop offset="0.820529" stop-color="#2F65A0"/>
</linearGradient>
<linearGradient id="paint1_linear_38_74" x1="129.327" y1="0" x2="129.327" y2="37.2299" gradientUnits="userSpaceOnUse">
<stop stop-color="#367CBC"/>
<stop offset="0.480805" stop-color="#6FC6E2"/>
</linearGradient>
</defs>
</svg>
